<svg xmlns="http://www.w3.org/2000/svg" id="Capa_1" viewBox="0 0 1000 80"><defs><style> .st0 { fill: #16366f; } .st1 { fill: #0069aa; } .st1, .st2, .st3, .st4 { fill-rule: evenodd; } .st5 { fill: #016fd0; } .st6 { fill: #003087; } .st7 { fill: #2d2d2d; } .st8, .st2 { fill: #fff; } .st9 { fill: #f2ae14; } .st10 { fill: #f37922; } .st11 { fill: #f8f7f7; } .st12 { fill: #009cde; } .st3 { fill: #fffffe; } .st13 { fill: #ee9f2d; } .st14 { fill: #0e4595; } .st4 { fill: #1a1919; } .st15 { fill: #d9222a; } .st16 { fill: #0097d0; } .st17 { fill: #05c0c7; } </style></defs><path class="st10" d="M734.77,2.28h-81.57c-4.54,0-8.17,3.63-8.17,8.17v59.78c0,4.54,3.63,8.17,8.17,8.17h81.57c4.54,0,8.17-3.63,8.17-8.17V10.45c0-4.54-3.71-8.17-8.17-8.17Z"></path><path class="st7" d="M477.36,2.05h-81.57c-4.54,0-8.17,3.63-8.17,8.17v59.78c0,4.54,3.63,8.17,8.17,8.17h81.57c4.54,0,8.17-3.63,8.17-8.17V10.15c0-4.46-3.71-8.1-8.17-8.1Z"></path><path class="st11" d="M348.42,1.37h-81.57c-4.54,0-8.17,3.63-8.17,8.17v59.78c0,4.54,3.63,8.17,8.17,8.17h81.57c4.54,0,8.17-3.63,8.17-8.17V9.55c0-4.54-3.63-8.17-8.17-8.17h0Z"></path><path class="st0" d="M219.11,1.3h-81.57c-4.54,0-8.17,3.63-8.17,8.17v59.78c0,4.54,3.63,8.17,8.17,8.17h81.57c4.54,0,8.17-3.63,8.17-8.17V9.47c-.08-4.54-3.71-8.17-8.17-8.17h0Z"></path><path class="st14" d="M89.8,1.3H8.23C3.69,1.3.06,4.93.06,9.47v59.78c0,4.54,3.63,8.17,8.17,8.17h81.57c4.54,0,8.17-3.63,8.17-8.17V9.47c0-4.54-3.71-8.17-8.17-8.17Z"></path><path class="st15" d="M470.93,39.89c0,11.35-9.16,20.51-20.51,20.51s-20.51-9.16-20.51-20.51,9.16-20.51,20.51-20.51,20.51,9.23,20.51,20.51"></path><path class="st16" d="M434.53,52.9c-.61-.68-1.06-1.44-1.59-2.19h7.26c.45-.68.83-1.44,1.21-2.19h-9.61c-.3-.68-.61-1.44-.83-2.19h11.35c.68-2.04,1.06-4.24,1.06-6.51,0-1.51-.15-2.95-.45-4.31h-12.56c.15-.76.38-1.44.61-2.19h11.35c-.23-.76-.53-1.44-.83-2.19h-9.61c.38-.76.76-1.44,1.21-2.19h7.26c-.45-.76-.98-1.51-1.59-2.19h-4.16c.61-.76,1.36-1.51,2.04-2.19-3.63-3.33-8.47-5.3-13.77-5.3-11.35,0-20.51,9.16-20.51,20.51s9.16,20.51,20.51,20.51c5.3,0,10.14-2.04,13.77-5.3.76-.68,1.44-1.44,2.04-2.19l-4.16.15"></path><path class="st8" d="M463.81,44.35c0-.38.3-.68.68-.68s.68.3.68.68-.3.68-.68.68-.68-.3-.68-.68h0ZM464.49,44.88c.3,0,.53-.23.53-.53s-.23-.53-.53-.53-.53.23-.53.53.23.53.53.53ZM464.42,44.65h-.15v-.61h.38c.08,0,.08.08.08.15s-.08.15-.08.15l.08.23h-.15l-.08-.23h-.08v.3h0ZM464.42,44.35h.15v-.15h-.15v.15h0ZM436.95,44.81c-.91.23-1.74.38-2.65.38-2.88,0-4.31-1.29-4.31-3.78,0-2.88,1.89-5.07,4.46-5.07,2.12,0,3.48,1.21,3.48,3.1,0,.61-.08,1.21-.3,2.12h-5.07c-.15,1.21.68,1.74,2.19,1.74.91,0,1.74-.15,2.65-.53,0,0-.45,2.04-.45,2.04ZM435.59,39.74c0-.15.3-1.51-1.21-1.51-.83,0-1.36.53-1.66,1.51h2.88-.01ZM438.69,39.21c0,1.06.61,1.82,1.97,2.35,1.06.45,1.21.53,1.21.91,0,.53-.45.76-1.51.76-.76,0-1.51-.08-2.35-.3l-.38,1.97c.76.15,1.82.23,2.72.23,2.72,0,4.01-.91,4.01-2.88,0-1.13-.53-1.89-1.82-2.35-1.06-.45-1.21-.53-1.21-.91,0-.45.45-.68,1.29-.68.53,0,1.21.08,1.89.15l.38-1.97c-.68-.08-1.66-.15-2.27-.15-2.95,0-3.93,1.29-3.93,2.88M428.63,45.03h-2.12l.08-.91c-.68.68-1.51,1.06-2.72,1.06-1.36,0-2.35-.98-2.35-2.35,0-2.12,1.66-3.25,4.54-3.25.3,0,.68,0,1.06.08.08-.3.08-.38.08-.53,0-.61-.45-.76-1.66-.76s-1.97.15-2.72.38l.38-1.89c1.29-.3,2.12-.45,3.1-.45,2.19,0,3.4.83,3.4,2.5,0,.45-.15,1.29-.23,1.66-.15.45-.76,3.71-.83,4.46h0ZM426.74,41.25h-.61c-1.44,0-2.19.45-2.19,1.29,0,.53.38.91.91.91,1.06-.08,1.82-.98,1.89-2.19h0ZM448.91,44.88c-.68.23-1.29.3-1.82.3-1.29,0-2.04-.68-2.04-1.89-.08-.3.3-1.82.38-2.27s1.21-6.58,1.21-6.58h2.57l-.38,2.04h1.29l-.38,2.04h-1.29s-.76,3.63-.76,3.86c0,.45.23.61.91.61.3,0,.53,0,.68-.08l-.38,1.97h.01ZM461.54,40.04c0,1.89-.76,3.03-2.04,3.03-.91,0-1.44-.76-1.44-1.89,0-1.36.83-2.88,2.12-2.88.98.08,1.36.83,1.36,1.74h0ZM464.27,40.11c0-2.12-1.36-3.78-4.01-3.78-3.03,0-4.99,2.04-4.99,4.99,0,2.12,1.13,3.86,4.01,3.86s4.99-1.59,4.99-5.07h0ZM451.18,36.48c-.3,2.65-.91,5.3-1.36,7.94l-.08.61h2.57c.91-5.07,1.21-6.58,3.18-6.05l.91-2.42c-1.36-.53-2.19.23-3.03,1.21.08-.45.23-.91.15-1.29h-2.35,0ZM420.31,45.03h-2.57l1.51-8.02-3.48,8.02h-2.35l-.45-7.94-1.51,7.94h-2.35l1.97-10.37h4.01l.23,6.43,2.8-6.43h4.16l-1.97,10.37"></path><path class="st6" d="M282.06,30.35c-.91-.68-2.19-.98-3.71-.98h-5.9c-.45,0-.76.23-.76.68l-2.35,14.98c0,.15,0,.3.08.38.08.15.23.15.38.15h2.8c.45,0,.76-.23.83-.68l.68-4.01c0-.23.08-.38.23-.45.15-.15.3-.23.53-.23.23-.08.45-.08.61-.08.23,0,.45,0,.68.08s.45.08.53.08c2.12,0,3.78-.61,4.92-1.74,1.21-1.21,1.82-2.8,1.82-4.92.08-1.51-.45-2.57-1.36-3.25h0ZM279.04,34.89c-.15.83-.45,1.44-.98,1.66-.53.3-1.29.38-2.19.38l-1.21.08.61-3.93c.08-.3.23-.38.45-.38h.68c.98,0,1.66.15,2.12.45.53.23.68.83.53,1.74h0Z"></path><path class="st12" d="M344.03,30.05h-2.72c-.3,0-.45.15-.45.38l-2.42,15.28-.08.08c0,.15.08.23.15.38s.23.15.38.15h2.42c.45,0,.76-.23.76-.68l2.42-14.98v-.08c0-.3-.15-.53-.45-.53h-.01Z"></path><path class="st6" d="M311.19,35.27c0-.15-.08-.23-.15-.38s-.23-.15-.3-.15h-2.8c-.3,0-.45.15-.68.38l-3.86,5.75-1.59-5.52c-.15-.38-.38-.61-.83-.61h-2.72c-.15,0-.23.08-.3.15s-.15.23-.15.38c0,.08.23.76.68,2.19.45,1.36.98,2.88,1.51,4.54s.83,2.5.83,2.57c-2.04,2.72-3.03,4.24-3.03,4.39,0,.3.15.45.45.45h2.8c.3,0,.45-.15.68-.38l9.38-13.47c.08-.08.08-.15.08-.3h0Z"></path><path class="st12" d="M337.53,34.82h-2.8c-.38,0-.53.38-.61,1.21-.61-.98-1.82-1.44-3.48-1.44s-3.25.68-4.46,1.97-1.82,2.88-1.82,4.69c0,1.44.45,2.57,1.29,3.48.83.83,1.97,1.29,3.4,1.29.68,0,1.44-.15,2.19-.45s1.29-.68,1.74-1.21c0,0,0,.15-.08.3-.08.23-.08.38-.08.45,0,.38.15.61.45.61h2.5c.45,0,.76-.23.83-.68l1.51-9.61c0-.15,0-.3-.08-.38-.23-.23-.38-.23-.53-.23h.03ZM332.76,42.01c-.61.61-1.36.91-2.27.91-.68,0-1.29-.23-1.74-.61s-.68-.91-.68-1.59c0-.91.3-1.66.91-2.27.61-.61,1.36-.91,2.27-.91.68,0,1.29.23,1.74.61s.68.98.68,1.66c0,.83-.3,1.59-.91,2.19h0Z"></path><path class="st6" d="M295.83,34.82h-2.8c-.38,0-.53.38-.61,1.21-.68-.98-1.82-1.44-3.48-1.44s-3.25.68-4.46,1.97-1.82,2.88-1.82,4.69c0,1.44.45,2.57,1.29,3.48.83.83,1.97,1.29,3.4,1.29.68,0,1.36-.15,2.12-.45s1.29-.68,1.74-1.21c-.08.3-.15.53-.15.76,0,.38.15.61.45.61h2.5c.45,0,.76-.23.83-.68l1.51-9.61c0-.15,0-.3-.08-.38-.15-.23-.3-.23-.45-.23h0ZM291.07,42.01c-.61.61-1.36.91-2.27.91-.68,0-1.29-.23-1.74-.61-.45-.38-.61-.91-.61-1.59,0-.91.3-1.66.91-2.27.61-.61,1.36-.91,2.27-.91.68,0,1.29.23,1.74.61s.68.98.68,1.66c-.08.83-.38,1.59-.98,2.19h0Z"></path><path class="st12" d="M323.76,30.35c-.91-.68-2.19-.98-3.71-.98h-5.83c-.45,0-.76.23-.83.68l-2.42,14.98c0,.15,0,.3.08.38.08.15.23.15.38.15h3.03c.3,0,.45-.15.61-.45l.68-4.24c0-.23.08-.38.23-.45.15-.15.3-.23.53-.23.23-.08.45-.08.61-.08.23,0,.45,0,.68.08.3,0,.45.08.53.08,2.12,0,3.78-.61,4.92-1.74,1.21-1.21,1.82-2.8,1.82-4.92.15-1.51-.38-2.57-1.29-3.25h-.02ZM319.97,36.41c-.53.38-1.36.53-2.42.53l-1.21.08.61-3.93c.08-.3.23-.38.45-.38h.68c.53,0,.98,0,1.29.08.3.08.61.23.91.45.3.23.45.61.45,1.13.08.98-.23,1.66-.76,2.04Z"></path><path class="st15" d="M184.98,39.28c0,11.58-9.38,20.96-20.96,20.96s-20.96-9.38-20.96-20.96,9.38-20.96,20.96-20.96,20.96,9.38,20.96,20.96"></path><path class="st13" d="M192.17,18.32c-5.45,0-10.37,2.04-14.07,5.45-.76.68-1.44,1.44-2.12,2.19h4.24c.61.68,1.13,1.44,1.59,2.19h-7.42c-.45.68-.83,1.44-1.21,2.19h9.84c.3.76.61,1.44.91,2.19h-11.58c-.23.76-.45,1.44-.61,2.19h12.79c.3,1.44.45,2.95.45,4.46,0,2.35-.38,4.54-1.06,6.66h-11.58c.23.76.53,1.51.91,2.19h9.84c-.38.76-.76,1.51-1.21,2.19h-7.42c.45.76.98,1.51,1.59,2.19h4.24c-.68.76-1.36,1.51-2.12,2.19,3.71,3.33,8.63,5.45,14.07,5.45,11.58,0,20.96-9.38,20.96-20.96-.15-11.43-9.46-20.81-21.04-20.81"></path><path d="M165.61,38.6c.45,0,1.06.08,1.66.15l.3-1.97c-.61-.08-1.51-.15-1.97-.15-2.57,0-3.4,1.36-3.4,2.95,0,1.06.53,1.82,1.74,2.42.91.45,1.06.53,1.06.98,0,.53-.38.76-1.29.76-.68,0-1.29-.08-2.04-.38,0,0-.3,1.89-.3,1.97.53.08.98.23,2.35.23,2.42,0,3.48-.91,3.48-2.88,0-1.21-.45-1.89-1.59-2.42-.98-.45-1.06-.53-1.06-.91,0-.53.38-.76,1.06-.76h0Z"></path><polygon points="151.69 34.82 149.72 40.72 149.5 34.82 146.24 34.82 144.5 45.41 146.62 45.41 147.98 37.32 148.14 45.41 149.72 45.41 152.6 37.24 151.31 45.41 153.58 45.41 155.32 34.82 151.69 34.82"></polygon><path d="M161.68,39.13c0-1.66-1.06-2.5-2.95-2.5-.83,0-1.59.15-2.72.45,0,0-.3,1.82-.3,1.97.38-.15,1.29-.38,2.42-.38,1.06,0,1.44.23,1.44.76,0,.15,0,.3-.08.53-.3-.08-.68-.08-.91-.08-2.5,0-4.01,1.21-4.01,3.33,0,1.36.83,2.35,2.04,2.35,1.06,0,1.82-.3,2.35-1.06l-.08.91h1.89c.08-.68.45-3.33.68-4.62.15-.68.23-1.29.23-1.66h0ZM157.52,43.67c-.53,0-.83-.38-.83-.91,0-.91.68-1.29,1.97-1.29h.53c-.08,1.36-.68,2.19-1.66,2.19h0Z"></path><path d="M169.85,42.76c0-.3.38-2.35.61-3.93h1.36l.3-2.04h-1.36l.23-1.29h-2.27s-.83,5.07-.98,5.9c-.15.91-.3,1.89-.3,2.27,0,1.21.61,1.89,1.82,1.89.53,0,.98-.08,1.66-.3l.3-1.89c-.15.08-.38.08-.61.08-.53,0-.76-.23-.76-.68h0Z"></path><path d="M194.52,36.56c-.83,0-1.59.15-2.72.45,0,0-.3,1.82-.3,1.97.38-.15,1.29-.38,2.42-.38,1.06,0,1.44.23,1.44.76,0,.15,0,.3-.08.53-.3-.08-.68-.08-.91-.08-2.5,0-4.01,1.21-4.01,3.33,0,1.36.83,2.35,2.04,2.35,1.06,0,1.82-.3,2.35-1.06l-.08.91h1.89c.08-.68.45-3.33.68-4.62.08-.76.15-1.29.15-1.74.08-1.51-.91-2.42-2.88-2.42h.01ZM193.31,43.67c-.53,0-.83-.38-.83-.91,0-.91.68-1.29,1.97-1.29h.53c-.08,1.36-.68,2.19-1.66,2.19h0Z"></path><path d="M178.4,41.85c.23-.91.3-1.51.3-2.12,0-1.89-1.21-3.1-3.03-3.1-2.27,0-3.93,2.19-3.93,5.15,0,2.5,1.29,3.86,3.86,3.86.76,0,1.51-.08,2.35-.38l.38-2.12c-.83.38-1.51.53-2.35.53-1.29,0-2.12-.53-1.97-1.74h4.39v-.08h0ZM175.53,38.53c1.29,0,1.06,1.36,1.06,1.51h-2.5c.23-.98.76-1.51,1.44-1.51Z"></path><path d="M186.04,40.8c0-2.35,1.21-4.01,2.88-4.01.61,0,1.21.15,2.04.61l.38-2.27c-.3-.15-1.51-.91-2.5-.91-1.51,0-2.8.76-3.71,1.97-1.29-.45-1.89.45-2.5,1.36l-.61.15c.08-.3.08-.61.08-.83h-2.12c-.3,2.65-.76,5.37-1.21,8.02l-.08.61h2.27c.38-2.5.61-4.01.68-5.15l.83-.45c.15-.45.53-.61,1.36-.61-.08.61-.15,1.21-.15,1.74,0,2.8,1.51,4.62,3.93,4.62.61,0,1.13-.08,2.04-.3l.38-2.42c-.76.38-1.36.53-1.89.53-1.36-.08-2.12-1.06-2.12-2.65h.02Z"></path><path class="st8" d="M154.26,44.73h-2.27l1.29-8.17-2.88,8.17h-1.51l-.3-8.1-1.36,8.1h-2.12l1.74-10.59h3.25l.08,6.58,2.19-6.58h3.56l-1.66,10.59h0Z"></path><path d="M208.14,34.82l-.53,3.1c-.61-.83-1.29-1.44-2.19-1.44-1.13,0-2.19.91-2.88,2.12-.98-.23-1.97-.53-1.97-.53h0c.08-.68.08-1.13.08-1.29h-2.12c-.3,2.65-.76,5.37-1.21,8.02l-.08.61h2.27c.3-1.97.53-3.63.68-4.99.76-.68,1.13-1.29,1.97-1.29-.38.83-.53,1.82-.53,2.8,0,2.19,1.06,3.56,2.72,3.56.83,0,1.44-.3,2.12-.98l-.08.83h2.12l1.74-10.59-2.12.08h.01ZM205.26,43.37c-.76,0-1.13-.61-1.13-1.74,0-1.66.76-2.88,1.74-2.88.76,0,1.21.61,1.21,1.66,0,1.82-.76,2.95-1.82,2.95h0Z"></path><path class="st8" d="M159.79,40.95h-.53c-1.29,0-1.97.45-1.97,1.29,0,.53.3.91.83.91.98-.08,1.66-.91,1.66-2.19h0ZM161.45,44.81h-1.82l.08-.91c-.61.68-1.36,1.06-2.35,1.06-1.21,0-2.04-.98-2.04-2.35,0-2.12,1.44-3.33,4.01-3.33.23,0,.61,0,.91.08.08-.3.08-.38.08-.53,0-.61-.38-.76-1.44-.76-1.13,0-2.04.23-2.42.38,0-.15.3-1.97.3-1.97,1.13-.3,1.89-.45,2.72-.45,1.97,0,2.95.91,2.95,2.5,0,.45-.08.98-.15,1.74-.3,1.13-.76,3.86-.83,4.54h0ZM191.95,34.44l-.38,2.27c-.83-.38-1.44-.61-2.04-.61-1.66,0-2.88,1.66-2.88,4.01,0,1.59.83,2.57,2.12,2.57.53,0,1.21-.15,1.89-.53l-.38,2.42c-.83.23-1.36.3-2.04.3-2.42,0-3.93-1.74-3.93-4.62,0-3.78,2.12-6.43,5.15-6.43.98.08,2.19.45,2.5.61M195.65,40.95h-.53c-1.29,0-1.97.45-1.97,1.29,0,.53.3.91.83.91.91-.08,1.59-.91,1.66-2.19h0ZM197.24,44.81h-1.89l.08-.91c-.61.68-1.36,1.06-2.35,1.06-1.21,0-2.04-.98-2.04-2.35,0-2.12,1.44-3.33,4.01-3.33.23,0,.61,0,.91.08.08-.3.08-.38.08-.53,0-.61-.38-.76-1.44-.76-1.13,0-2.04.23-2.42.38,0-.15.3-1.97.3-1.97,1.13-.3,1.89-.45,2.72-.45,1.97,0,2.95.91,2.95,2.5,0,.45-.08.98-.15,1.74-.23,1.13-.68,3.86-.76,4.54h0ZM171.59,44.65c-.61.23-1.13.3-1.66.3-1.13,0-1.82-.68-1.82-1.89,0-.38.15-1.36.3-2.27.15-.83.98-5.9.98-5.9h2.27l-.23,1.29h1.13l-.3,2.04h-1.13c-.23,1.66-.61,3.71-.61,3.93,0,.45.23.61.76.61.23,0,.45,0,.61-.08l-.3,1.97h0ZM178.48,44.58c-.76.23-1.51.38-2.35.38-2.5,0-3.86-1.29-3.86-3.86,0-2.95,1.66-5.15,3.93-5.15,1.89,0,3.03,1.21,3.03,3.1,0,.61-.08,1.29-.3,2.12h-4.46c-.15,1.29.68,1.74,1.97,1.74.83,0,1.51-.15,2.35-.53l-.3,2.19h0ZM177.27,39.43c0-.15.23-1.51-1.06-1.51-.76,0-1.21.53-1.44,1.51h2.5ZM162.81,38.83c0,1.06.53,1.82,1.74,2.42.91.45,1.06.53,1.06.98,0,.53-.38.76-1.29.76-.68,0-1.29-.08-2.04-.38,0,0-.3,1.89-.3,1.97.53.08.98.23,2.35.23,2.42,0,3.48-.91,3.48-2.88,0-1.21-.45-1.89-1.59-2.42-.98-.45-1.06-.53-1.06-.91,0-.45.38-.68,1.13-.68.45,0,1.06.08,1.66.15l.3-1.97c-.61-.08-1.51-.15-1.97-.15-2.57,0-3.48,1.29-3.48,2.88M209.27,44.81h-2.12l.08-.83c-.61.68-1.29.98-2.12.98-1.66,0-2.72-1.44-2.72-3.56,0-2.88,1.66-5.3,3.71-5.3.91,0,1.51.38,2.19,1.21l.53-3.1h2.27l-1.82,10.59h0ZM205.94,42.76c1.06,0,1.82-1.21,1.82-2.88,0-1.06-.45-1.66-1.21-1.66-1.06,0-1.74,1.21-1.74,2.88,0,1.13.38,1.66,1.13,1.66ZM199.29,36.1c-.3,2.65-.76,5.37-1.21,8.02l-.08.61h2.27c.83-5.3.98-6.28,2.27-6.2.23-1.06.61-2.04.83-2.5-.98-.23-1.51.3-2.19,1.36.08-.45.15-.91.15-1.29.08,0-2.04,0-2.04,0ZM180.6,36.1c-.3,2.65-.76,5.37-1.21,8.02l-.08.61h2.27c.83-5.3.98-6.28,2.27-6.2.23-1.06.61-2.04.83-2.5-.98-.23-1.51.3-2.19,1.36.08-.45.15-.91.15-1.29.08,0-2.04,0-2.04,0ZM210.33,44.12c0-.38.3-.68.68-.68s.68.3.68.68h0c0,.38-.3.68-.68.68s-.68-.3-.68-.68h0ZM210.94,44.58c.3,0,.53-.23.53-.53h0c0-.3-.23-.53-.53-.53h0c-.3,0-.53.23-.53.53.08.3.3.53.53.53h0ZM210.86,44.35h-.15v-.61h.38c.08,0,.08.08.08.15s-.08.15-.08.15l.08.23h-.08l-.08-.23h-.08l-.08.3h0ZM210.86,44.05h.15v-.15h-.15v.15h0Z"></path><path class="st8" d="M37.13,50.33l3.71-21.87h5.98l-3.71,21.87h-5.98ZM64.52,28.92c-1.21-.45-3.03-.91-5.3-.91-5.9,0-9.99,2.95-10.06,7.19,0,3.1,2.95,4.92,5.22,5.9,2.35,1.06,3.1,1.74,3.1,2.72,0,1.44-1.82,2.12-3.56,2.12-2.35,0-3.63-.3-5.6-1.13l-.76-.38-.83,4.92c1.36.61,3.93,1.13,6.66,1.13,6.28,0,10.29-2.95,10.37-7.49,0-2.5-1.59-4.39-4.99-5.9-2.12-.98-3.33-1.66-3.33-2.72,0-.91,1.06-1.89,3.4-1.89,1.97,0,3.33.38,4.46.83l.53.23.68-4.62h.01ZM79.88,28.46h-4.62c-1.44,0-2.5.38-3.1,1.82l-8.85,19.98h6.28s1.06-2.72,1.29-3.25h7.64c.15.76.76,3.25.76,3.25h5.52l-4.92-21.79h0ZM72.54,42.61c.45-1.29,2.35-6.13,2.35-6.13,0,.08.45-1.29.76-2.12l.38,1.89s1.13,5.22,1.36,6.28h-4.84v.08h-.01ZM32.06,28.46l-5.83,14.91-.61-3.03c-1.06-3.48-4.46-7.26-8.25-9.16l5.3,19.07h6.28l9.38-21.79h-6.28"></path><path class="st9" d="M20.79,27.93h-9.53l-.08.45c7.49,1.82,12.41,6.2,14.45,11.43l-2.12-9.99c-.38-1.44-1.44-1.82-2.72-1.89"></path><path class="st5" d="M606.21,2.28h-81.57c-4.54,0-8.17,3.63-8.17,8.17v59.78c0,4.54,3.63,8.17,8.17,8.17h81.57c4.54,0,8.17-3.63,8.17-8.17V10.45c0-4.54-3.63-8.17-8.17-8.17Z"></path><path class="st17" d="M991.89,1.52h-81.57c-4.54,0-8.17,3.63-8.17,8.17v59.78c0,4.54,3.63,8.17,8.17,8.17h81.57c4.54,0,8.17-3.63,8.17-8.17V9.62c0-4.46-3.71-8.1-8.17-8.1Z"></path><path class="st2" d="M952.14,36.62c-.66,0-1.22.56-1.22,1.18v9.03c0,.66.56,1.22,1.22,1.22s1.22-.56,1.22-1.22v-8.98c0-.66-.52-1.22-1.22-1.22ZM952.14,32.16c-.75,0-1.36.61-1.36,1.36s.61,1.41,1.36,1.41,1.36-.61,1.36-1.41c.05-.75-.61-1.36-1.36-1.36ZM964.08,37.84c0-.75-.61-1.03-1.13-1.03h-6.11c-.61,0-1.08.47-1.08,1.03,0,.61.47,1.08,1.08,1.08h4l-5.12,7.15c-.14.19-.24.52-.24.71,0,.75.61,1.18,1.13,1.18h6.44c.61,0,1.08-.47,1.08-1.08s-.47-1.08-1.08-1.08h-4.37l5.03-7c.28-.33.38-.66.38-.94ZM946.22,43.49c0,1.5-.66,2.4-2.12,2.4s-2.12-.89-2.12-2.4v-4.61h2.21c1.79,0,2.02.99,2.02,2.07v2.54ZM948.66,40.9c0-2.54-1.32-4.14-4.42-4.14h-2.26v-3.38c0-.66-.56-1.22-1.18-1.22-.66,0-1.22.56-1.22,1.22v10.15c0,2.54,1.36,4.56,4.56,4.56s4.56-2.07,4.56-4.56v-2.59l-.05-.05h0ZM973.58,36.62c-.66,0-1.22.56-1.22,1.22v5.64c0,1.5-.66,2.4-2.12,2.4s-2.12-.89-2.12-2.4v-5.64c0-.66-.56-1.22-1.18-1.22-.66,0-1.22.56-1.22,1.22v5.64c0,2.54,1.36,4.56,4.56,4.56s4.56-2.07,4.56-4.56v-5.64c-.05-.66-.61-1.22-1.27-1.22ZM992.15,41.23c0-2.54-1.18-4.56-4.32-4.56-1.41,0-2.44.42-3.15,1.13-.71-.66-1.69-1.13-3.15-1.13-3.15,0-4.32,2.07-4.32,4.56v5.64c0,.66.56,1.22,1.18,1.22.66,0,1.22-.56,1.22-1.22v-5.64c0-1.5.47-2.4,1.93-2.4s1.93.89,1.93,2.4v5.64c0,.66.56,1.22,1.18,1.22.66,0,1.22-.56,1.22-1.22v-5.64c0-1.5.47-2.4,1.93-2.4s1.93.89,1.93,2.4v5.64c0,.66.56,1.22,1.18,1.22.66,0,1.22-.56,1.22-1.22l.05-5.64ZM917.4,36.67c.85.61,2.07.42,2.68-.42l2.26-3.1c.61-.85.42-2.07-.42-2.68-.85-.61-2.07-.42-2.68.42l-2.26,3.1c-.61.85-.42,2.02.42,2.68ZM927.65,32.3c-.85-.61-2.07-.42-2.68.42l-9.03,12.36c-.61.85-.42,2.07.42,2.68s2.07.42,2.68-.42l8.98-12.36c.66-.85.47-2.07-.38-2.68ZM916.56,31.31c.61-.85.42-2.07-.42-2.68-.85-.61-2.07-.47-2.68.42-.61.85-.47,2.02.42,2.68.85.61,2.02.42,2.68-.42ZM930.19,48.28c-.85-.61-2.07-.42-2.68.42-.61.85-.42,2.07.42,2.68.85.61,2.07.42,2.68-.42.61-.85.42-2.02-.42-2.68ZM926.66,43.39c-.85-.61-2.07-.42-2.68.42l-2.26,3.1c-.61.85-.42,2.07.42,2.68s2.07.42,2.68-.42l2.26-3.1c.61-.85.42-2.07-.42-2.68Z"></path><g><path id="path3046" class="st8" d="M528.87,28.46l-4.02,9.34h2.61l.74-1.87h4.31l.74,1.87h2.67l-4.01-9.34h-3.05ZM530.36,30.63l1.31,3.27h-2.63l1.32-3.27Z"></path><path id="path3048" class="st8" d="M536.21,37.79v-9.34h3.72s2.16,6.03,2.16,6.03l2.11-6.03h3.69v9.34h-2.33v-6.88l-2.47,6.88h-2.05l-2.48-6.88v6.88h-2.33Z"></path><path id="path3050" class="st8" d="M549.48,37.79v-9.34h7.62v2.09h-5.26v1.6h5.14v1.97h-5.14v1.66h5.26v2.03h-7.62Z"></path><path id="path3052" class="st8" d="M558.45,28.46v9.34h2.33v-3.32h.98l2.8,3.32h2.85l-3.07-3.44c1.26-.11,2.56-1.19,2.56-2.87,0-1.97-1.54-3.03-3.26-3.03h-5.2ZM560.78,30.54h2.67c.64,0,1.11.5,1.11.98,0,.62-.6.98-1.07.98h-2.7v-1.97h0Z"></path><path id="path3054" class="st8" d="M570.25,37.79h-2.38v-9.34h2.38v9.34Z"></path><path id="path3056" class="st8" d="M575.9,37.79h-.51c-2.49,0-4-1.96-4-4.63s1.49-4.71,4.64-4.71h2.58v2.21h-2.67c-1.28,0-2.18,1-2.18,2.52,0,1.81,1.03,2.57,2.52,2.57h.61l-.98,2.04Z"></path><path id="path3058" class="st8" d="M580.98,28.46l-4.02,9.34h2.61l.74-1.87h4.31l.74,1.87h2.67l-4.01-9.34h-3.05ZM582.46,30.63l1.31,3.27h-2.63l1.32-3.27h0Z"></path><path id="path3060" class="st8" d="M588.31,37.79v-9.34h2.97l3.79,5.87v-5.87h2.33v9.34h-2.87l-3.89-6.02v6.02h-2.33Z"></path><path id="path3062" class="st8" d="M541.86,54.14v-9.34h7.62v2.09h-5.26v1.6h5.14v1.97h-5.14v1.66h5.26v2.03h-7.62Z"></path><path id="path3064" class="st8" d="M579.19,54.14v-9.34h7.62v2.09h-5.26v1.6h5.11v1.97h-5.11v1.66h5.26v2.03h-7.62Z"></path><path id="path3066" class="st8" d="M549.77,54.14l3.71-4.61-3.8-4.73h2.94l2.26,2.92,2.27-2.92h2.83l-3.75,4.67,3.72,4.67h-2.94l-2.2-2.88-2.14,2.88h-2.9Z"></path><path id="path3068" class="st8" d="M560.23,44.8v9.34h2.4v-2.95h2.46c2.08,0,3.66-1.1,3.66-3.25,0-1.78-1.24-3.14-3.35-3.14h-5.16ZM562.63,46.91h2.59c.67,0,1.15.41,1.15,1.08,0,.62-.48,1.08-1.16,1.08h-2.58v-2.15h0Z"></path><path id="path3072" class="st8" d="M569.75,44.8v9.34h2.33v-3.32h.98l2.8,3.32h2.85l-3.07-3.44c1.26-.11,2.56-1.19,2.56-2.87,0-1.97-1.54-3.03-3.26-3.03h-5.2,0ZM572.09,46.89h2.67c.64,0,1.11.5,1.11.98,0,.62-.6.98-1.07.98h-2.7v-1.97Z"></path><path id="path3074" class="st8" d="M587.89,54.14v-2.03h4.67c.69,0,.99-.37.99-.78s-.3-.79-.99-.79h-2.11c-1.84,0-2.86-1.12-2.86-2.8,0-1.5.94-2.94,3.66-2.94h4.55l-.98,2.1h-3.93c-.75,0-.98.39-.98.77s.29.81.86.81h2.21c2.05,0,2.93,1.16,2.93,2.68,0,1.63-.99,2.97-3.05,2.97h-4.98Z"></path><path id="path3076" class="st8" d="M596.46,54.14v-2.03h4.67c.69,0,.99-.37.99-.78s-.3-.79-.99-.79h-2.11c-1.84,0-2.86-1.12-2.86-2.8,0-1.5.94-2.94,3.66-2.94h4.55l-.98,2.1h-3.93c-.75,0-.98.39-.98.77s.29.81.86.81h2.21c2.05,0,2.93,1.16,2.93,2.68,0,1.63-.99,2.97-3.05,2.97h-4.98Z"></path></g><path class="st11" d="M862.34,1.97h-81.57c-4.54,0-8.17,3.63-8.17,8.17v59.78c0,4.54,3.63,8.17,8.17,8.17h81.57c4.54,0,8.17-3.63,8.17-8.17V10.07c0-4.46-3.71-8.1-8.17-8.1Z"></path><g><path class="st4" d="M787.51,44.55c0-1.33-.69-1.24-1.36-1.26v-.38c.58.03,1.17.03,1.75.03.62,0,1.46-.03,2.56-.03,3.83,0,5.92,2.56,5.92,5.18,0,1.47-.86,5.15-6.09,5.15-.75,0-1.45-.03-2.14-.03s-1.32.01-1.98.03v-.38c.89-.09,1.32-.12,1.36-1.12v-7.17ZM788.96,51.49c0,1.14.81,1.27,1.54,1.27,3.2,0,4.24-2.41,4.24-4.61,0-2.77-1.77-4.76-4.63-4.76-.61,0-.89.04-1.15.06v8.05Z"></path><path class="st4" d="M796.89,52.85h.28c.41,0,.71,0,.71-.49v-4.01c0-.65-.22-.74-.77-1.03v-.24c.7-.21,1.52-.49,1.58-.53.1-.06.19-.08.27-.08s.1.09.1.21v5.68c0,.49.33.49.74.49h.25v.38c-.5,0-1.02-.03-1.55-.03s-1.07.01-1.61.03v-.38ZM798.48,44.2c-.39,0-.72-.35-.72-.74s.36-.71.72-.71.73.31.73.71-.33.74-.73.74Z"></path><path class="st4" d="M801.46,48.44c0-.55-.16-.69-.86-.98v-.28c.63-.21,1.24-.4,1.95-.71.04,0,.09.03.09.15v.96c.84-.61,1.57-1.11,2.56-1.11,1.26,0,1.7.92,1.7,2.07v3.82c0,.49.33.49.74.49h.27v.38c-.52,0-1.04-.03-1.57-.03s-1.07.01-1.6.03v-.38h.27c.41,0,.71,0,.71-.49v-3.83c0-.84-.52-1.26-1.36-1.26-.47,0-1.23.38-1.72.71v4.38c0,.49.33.49.74.49h.27v.38c-.52,0-1.04-.03-1.57-.03s-1.06.01-1.6.03v-.38h.27c.41,0,.71,0,.71-.49v-3.92"></path><path class="st4" d="M809.04,49.15c-.03.13-.03.35,0,.86.09,1.4.99,2.56,2.17,2.56.81,0,1.45-.44,2-.99l.21.21c-.68.9-1.52,1.67-2.74,1.67-2.35,0-2.83-2.28-2.83-3.23,0-2.9,1.95-3.76,2.99-3.76,1.2,0,2.49.75,2.5,2.32,0,.09,0,.18-.01.27l-.13.09h-4.16ZM811.66,48.68c.37,0,.41-.19.41-.37,0-.75-.46-1.36-1.29-1.36-.9,0-1.52.66-1.7,1.73h2.57Z"></path><path class="st4" d="M813.68,52.85h.4c.41,0,.71,0,.71-.49v-4.16c0-.46-.55-.55-.77-.67v-.22c1.08-.46,1.67-.84,1.81-.84.09,0,.13.04.13.19v1.33h.03c.37-.58.99-1.52,1.89-1.52.37,0,.84.25.84.78,0,.4-.28.76-.69.76-.46,0-.46-.36-.98-.36-.25,0-1.08.34-1.08,1.23v3.47c0,.49.3.49.71.49h.83v.38c-.81-.02-1.43-.03-2.07-.03s-1.23.01-1.76.03v-.38"></path><path class="st4" d="M819.38,51.18c.19.98.78,1.81,1.87,1.81.87,0,1.2-.53,1.2-1.05,0-1.75-3.22-1.18-3.22-3.56,0-.83.67-1.89,2.29-1.89.47,0,1.11.13,1.68.43l.1,1.51h-.34c-.15-.93-.66-1.46-1.61-1.46-.59,0-1.15.34-1.15.98,0,1.73,3.43,1.2,3.43,3.52,0,.98-.78,2.01-2.54,2.01-.59,0-1.29-.21-1.8-.5l-.16-1.7.27-.07"></path><path class="st4" d="M836.98,45.59h-.37c-.28-1.73-1.51-2.43-3.16-2.43s-4.17,1.14-4.17,4.69c0,2.99,2.13,5.13,4.41,5.13,1.46,0,2.68-1.01,2.97-2.56l.34.09-.34,2.16c-.62.39-2.29.79-3.27.79-3.46,0-5.65-2.23-5.65-5.56,0-3.03,2.71-5.21,5.61-5.21,1.2,0,2.35.39,3.49.79l.15,2.11"></path><path class="st4" d="M837.51,52.85h.28c.42,0,.71,0,.71-.49v-8.24c0-.96-.22-.99-.78-1.15v-.24c.59-.19,1.21-.46,1.52-.64.16-.09.28-.16.32-.16.09,0,.12.09.12.21v10.22c0,.49.33.49.74.49h.25v.38c-.5,0-1.02-.03-1.55-.03s-1.06.01-1.61.03v-.38"></path><path class="st4" d="M847.01,52.42c0,.27.16.28.41.28.18,0,.4-.01.59-.01v.31c-.64.06-1.85.37-2.13.46l-.07-.05v-1.2c-.89.72-1.57,1.24-2.62,1.24-.8,0-1.63-.52-1.63-1.76v-3.79c0-.39-.06-.75-.89-.83v-.28c.53-.01,1.71-.1,1.91-.1.16,0,.16.1.16.43v3.82c0,.44,0,1.71,1.29,1.71.5,0,1.17-.38,1.79-.9v-3.98c0-.3-.71-.46-1.24-.61v-.27c1.33-.09,2.16-.21,2.31-.21.12,0,.12.1.12.27v5.46"></path><path class="st4" d="M849.95,47.54c.59-.5,1.39-1.07,2.2-1.07,1.72,0,2.75,1.5,2.75,3.11,0,1.94-1.42,3.88-3.54,3.88-1.09,0-1.67-.36-2.06-.52l-.44.34-.31-.16c.13-.87.21-1.73.21-2.63v-6.36c0-.96-.22-.99-.78-1.15v-.24c.59-.19,1.21-.46,1.52-.64.16-.09.28-.16.33-.16.09,0,.12.09.12.21v5.4ZM849.95,51.57c0,.56.53,1.51,1.52,1.51,1.58,0,2.25-1.55,2.25-2.87,0-1.6-1.21-2.93-2.36-2.93-.55,0-1.01.36-1.41.7v3.59Z"></path><path class="st4" d="M794.12,60.49l.02-.02v-3.02c0-.66-.46-.76-.7-.76h-.18v-.24c.38,0,.75.03,1.13.03.33,0,.66-.03.99-.03v.24h-.12c-.34,0-.72.06-.72,1.02v3.66c0,.28,0,.56.05.81h-.31l-4.14-4.62v3.32c0,.7.14.94.76.94h.14v.24c-.35,0-.69-.03-1.04-.03s-.73.03-1.09.03v-.24h.11c.56,0,.72-.38.72-1.02v-3.39c0-.45-.37-.72-.73-.72h-.11v-.24c.31,0,.62.03.92.03.24,0,.48-.03.72-.03l3.58,4.03"></path><path class="st4" d="M794.59,62.23h-.33s-4.08-4.56-4.08-4.56v3.23c0,.7.12.9.72.91h.17v.31h-.04c-.35,0-.69-.03-1.04-.03-.36,0-.73.03-1.09.03h-.04v-.31h.15c.53,0,.68-.34.69-.99v-3.39c0-.43-.35-.69-.7-.69h-.14v-.31h.04c.31,0,.62.03.92.03.24,0,.47-.03.74-.02l3.54,3.98v-2.96c0-.64-.43-.72-.67-.72h-.21v-.31h.04c.38,0,.75.03,1.13.03.33,0,.66-.03.99-.03h.04v.31h-.16c-.33,0-.67.04-.68.99v3.66c0,.28,0,.56.05.81v.04s-.03,0-.03,0ZM794.28,62.16h.27c-.04-.24-.04-.51-.04-.78v-3.66c0-.97.4-1.06.75-1.06h.08v-.17c-.32,0-.64.03-.96.03-.37,0-.73-.03-1.09-.03v.17s.14,0,.14,0c.25,0,.74.11.74.79v3.04s-.03.02-.03.02l-.03.03-3.58-4.05c-.24,0-.47.03-.72.03-.29,0-.6-.03-.89-.03v.17s.07,0,.07,0c.38,0,.77.29.77.76v3.39c0,.64-.18,1.06-.76,1.06h-.08s0,.17,0,.17c.35,0,.71-.03,1.06-.03s.67.03,1,.03v-.17h-.1c-.63,0-.79-.28-.79-.98v-3.41l4.18,4.67ZM794.12,60.49l.03-.02-.03.02ZM794.1,60.48h0s0,0,0,0h0Z"></path><path class="st4" d="M796.58,56.86c-.6,0-.63.15-.75.73h-.24c.03-.23.07-.45.1-.68.03-.23.05-.45.05-.68h.19c.06.24.27.23.48.23h4.15c.22,0,.42,0,.44-.25l.19.03c-.03.22-.06.43-.09.65-.02.22-.02.43-.02.65l-.24.09c-.02-.3-.06-.77-.6-.77h-1.32v4.28c0,.62.28.69.67.69h.15v.24c-.31,0-.88-.03-1.31-.03-.48,0-1.05.03-1.36.03v-.24h.15c.44,0,.67-.04.67-.68v-4.3h-1.32"></path><path class="st4" d="M799.75,62.11c-.32,0-.88-.03-1.31-.03-.48,0-1.05.03-1.36.03h-.03v-.31h.19c.44-.01.62-.02.63-.64v-4.26h-1.28v-.07h1.35v4.33c0,.65-.26.71-.7.71h-.12v.17c.32,0,.86-.03,1.33-.03.42,0,.96.03,1.28.03v-.17h-.12c-.39,0-.7-.1-.7-.73v-4.32h1.35c.54,0,.61.46.63.76l.17-.06c0-.21,0-.42.02-.63.02-.21.05-.41.08-.62l-.12-.02c-.04.23-.26.25-.47.24h-4.19c-.19,0-.4,0-.47-.23h-.13c0,.22-.02.44-.05.65-.02.22-.06.43-.09.65h.17c.11-.56.17-.74.78-.73v.07c-.6.01-.58.11-.71.71v.03h-.32v-.04c.04-.22.08-.45.1-.68.03-.22.05-.45.05-.68v-.04h.26v.03c.06.2.21.2.41.21h4.19c.22,0,.39,0,.4-.22v-.04s.04,0,.04,0l.23.04v.04c-.04.22-.07.43-.09.65-.01.22-.01.43-.01.65v.02h-.02s-.28.11-.28.11v-.05c-.02-.3-.06-.74-.56-.74h-1.28v4.25c0,.61.25.65.63.66h.19v.31h-.03"></path><path class="st4" d="M801.45,61.84h.11c.29,0,.6-.04.6-.46v-4.22c0-.42-.31-.46-.6-.46h-.11v-.24c.49,0,1.33.03,2,.03s1.51-.03,2.06-.03c-.01.35,0,.88.02,1.23l-.24.06c-.04-.52-.14-.94-.98-.94h-1.12v2.11h.96c.48,0,.59-.27.64-.71h.24c-.02.31-.02.63-.02.94s0,.61.02.92l-.24.05c-.05-.48-.07-.8-.63-.8h-.96v1.87c0,.52.46.52.98.52.97,0,1.39-.06,1.63-.98l.22.06c-.1.43-.2.85-.27,1.28-.52,0-1.44-.03-2.16-.03s-1.68.03-2.14.03v-.24"></path><path class="st4" d="M805.76,62.11c-.52,0-1.44-.03-2.16-.03s-1.68.03-2.14.03h-.03v-.31h.15c.29,0,.56-.03.56-.42v-4.22c0-.39-.27-.42-.56-.42h-.15v-.31h.03c.49,0,1.33.03,2,.03s1.51-.03,2.06-.03h.04v.04c0,.12,0,.26,0,.41,0,.28,0,.58.02.81v.03s-.03,0-.03,0l-.28.07v-.04c-.05-.52-.12-.9-.95-.91h-1.08v2.04s.92,0,.92,0c.46,0,.55-.24.6-.68v-.03h.31v.04c-.02.31-.03.63-.03.94s0,.61.03.92v.03s-.03,0-.03,0l-.28.06v-.04c-.06-.49-.06-.76-.6-.77h-.93v1.84c0,.49.42.49.95.49.97,0,1.36-.05,1.6-.96v-.03s.04,0,.04,0l.26.07v.03c-.11.43-.21.85-.28,1.28v.03h-.03ZM805.73,62.04c.07-.41.16-.81.26-1.22l-.16-.04c-.24.9-.71.98-1.66.97-.51,0-1.01,0-1.02-.56v-1.91h1c.56,0,.62.33.66.79l.17-.04c-.02-.3-.02-.59-.02-.89s0-.6.02-.91h-.17c-.05.42-.18.71-.67.71h-.99v-2.18h1.15c.84,0,.98.43,1.01.93l.17-.05c-.01-.23-.02-.52-.02-.79,0-.14,0-.27,0-.38-.55,0-1.36.03-2.02.03s-1.48-.03-1.97-.03v.17h.08c.29,0,.63.05.63.5v4.22c0,.44-.34.49-.63.5h-.08v.17c.47,0,1.4-.03,2.11-.03s1.62.03,2.13.03Z"></path><path class="st4" d="M807.12,57.31c0-.59-.32-.61-.57-.61h-.15v-.24c.26,0,.76.03,1.25.03s.87-.03,1.3-.03c1.01,0,1.92.27,1.92,1.42,0,.72-.48,1.17-1.12,1.42l1.38,2.06c.23.34.39.44.78.48v.24c-.27,0-.52-.03-.79-.03-.25,0-.51.03-.76.03-.62-.81-1.15-1.68-1.67-2.61h-.53v1.72c0,.62.29.64.66.64h.15v.24c-.46,0-.92-.03-1.38-.03-.39,0-.76.03-1.17.03v-.24h.15c.3,0,.57-.14.57-.43v-4.09ZM808.15,59.18h.39c.81,0,1.24-.31,1.24-1.26,0-.72-.46-1.17-1.18-1.17-.24,0-.34.02-.46.03v2.4Z"></path><path class="st4" d="M811.9,62.11c-.27,0-.53-.03-.79-.03-.25,0-.5.03-.78.02-.62-.81-1.15-1.67-1.67-2.59h-.48v1.69c0,.61.25.6.62.61h.18v.31h-.04c-.46,0-.93-.03-1.38-.03-.38,0-.76.03-1.17.03h-.03v-.31h.18c.29,0,.53-.13.54-.4v-4.09c0-.57-.29-.57-.54-.58h-.18v-.31h.03c.26,0,.76.03,1.25.03s.87-.03,1.3-.03c1.01,0,1.95.28,1.95,1.45,0,.73-.48,1.18-1.1,1.43l1.35,2.02c.23.33.37.42.76.47h.03v.31h-.03ZM808.15,59.44h.55v.02c.53.92,1.06,1.79,1.66,2.59.25,0,.5-.03.75-.03s.51.03.76.03v-.18c-.38-.05-.55-.16-.77-.49l-1.4-2.1.04-.02c.63-.25,1.1-.68,1.1-1.39,0-1.12-.87-1.38-1.88-1.38-.42,0-.81.03-1.3.03s-.95-.03-1.21-.03v.17h.11c.25,0,.61.04.61.65v4.09c0,.32-.3.47-.61.47h-.11v.17c.39,0,.75-.03,1.13-.03.45,0,.9.03,1.35.03v-.17h-.11c-.37,0-.69-.05-.69-.68v-1.76h.04ZM808.15,59.22h-.04v-2.46h.03c.11-.01.22-.03.46-.03.73,0,1.21.48,1.21,1.21,0,.96-.46,1.29-1.27,1.29h-.39ZM808.54,59.15c.8,0,1.2-.28,1.21-1.22,0-.7-.44-1.14-1.14-1.14-.22,0-.32.02-.42.03v2.33h.36Z"></path><path class="st4" d="M817.36,60.49v-.02s.01-3.02.01-3.02c0-.66-.46-.76-.7-.76h-.18v-.24c.38,0,.75.03,1.13.03.33,0,.66-.03.99-.03v.24h-.12c-.34,0-.72.06-.72,1.02v3.66c0,.28,0,.56.05.81h-.3l-4.14-4.62v3.32c0,.7.14.94.76.94h.14v.24c-.35,0-.69-.03-1.04-.03-.36,0-.73.03-1.09.03v-.24h.11c.56,0,.73-.38.73-1.02v-3.39c0-.45-.37-.72-.73-.72h-.1v-.24c.3,0,.62.03.93.03.24,0,.47-.03.72-.03l3.58,4.03"></path><path class="st4" d="M817.83,62.23h-.33s-4.09-4.56-4.09-4.56v3.23c0,.7.12.9.72.91h.17v.31h-.03c-.35,0-.69-.03-1.04-.03s-.73.03-1.09.03h-.04v-.31h.15c.53,0,.68-.34.69-.99v-3.39c0-.43-.35-.69-.7-.69h-.14v-.31h.04c.31,0,.62.03.93.03.24,0,.47-.03.74-.02l3.54,3.98v-2.96c0-.64-.43-.72-.66-.72h-.21v-.31h.04c.38,0,.75.03,1.13.03.33,0,.66-.03.99-.03h.04v.31h-.16c-.33,0-.67.04-.68.99v3.66c0,.28,0,.56.05.81v.04s-.04,0-.04,0ZM817.52,62.16h.26c-.04-.24-.04-.51-.04-.78v-3.66c0-.97.41-1.06.75-1.06h.08v-.17c-.32,0-.63.03-.95.03-.37,0-.73-.03-1.09-.03v.17h.14c.25,0,.74.11.74.79v3.04s-.03.02-.03.02l-.03.03-3.58-4.05c-.24,0-.47.03-.72.03-.3,0-.6-.03-.89-.03v.17h.07c.38,0,.77.29.77.76v3.39c0,.65-.18,1.06-.76,1.06h-.08s0,.17,0,.17c.35,0,.71-.03,1.06-.03s.67.03,1,.03v-.17h-.1c-.63,0-.79-.28-.79-.98v-3.41l4.18,4.67ZM817.36,60.49l.03-.02-.03.02ZM817.34,60.48h0s0,0,0,0h0Z"></path><path class="st4" d="M819.91,60.93c-.08.27-.18.48-.18.63,0,.24.34.28.6.28h.09v.24c-.32-.02-.65-.03-.98-.03-.29,0-.58.01-.87.03v-.24h.05c.31,0,.58-.19.7-.52l1.29-3.69c.11-.3.25-.7.3-1,.26-.09.58-.25.73-.35.02,0,.04-.02.06-.02s.04,0,.06.03c.02.06.05.14.07.2l1.48,4.21c.1.28.19.58.3.82.1.23.27.32.53.32h.05v.24c-.36-.02-.73-.03-1.11-.03s-.8.01-1.21.03v-.24h.09c.18,0,.5-.03.5-.23,0-.1-.07-.32-.16-.58l-.31-.93h-1.83l-.26.84ZM821.09,57.36h-.02l-.75,2.28h1.5l-.74-2.28Z"></path><path class="st4" d="M824.2,62.11c-.36-.02-.72-.03-1.11-.03s-.8.02-1.21.03h-.04s0-.31,0-.31h.12c.19,0,.46-.04.46-.2,0-.09-.07-.31-.16-.57l-.31-.91h-1.78l-.25.81c-.08.27-.18.49-.18.62,0,.2.3.25.57.25h.12v.31h-.04c-.32-.02-.65-.04-.97-.04-.29,0-.58.02-.87.03h-.04s0-.31,0-.31h.08c.3,0,.55-.17.67-.5l1.29-3.69c.1-.3.25-.7.32-1.02.25-.09.58-.25.73-.35.02,0,.04-.02.08-.02.02,0,.06,0,.09.05.02.07.05.14.07.2l1.48,4.21c.09.28.19.58.3.82.09.21.24.3.5.3h.08v.31h-.04ZM821.92,62.04c.4-.01.79-.03,1.17-.03s.72.02,1.07.03v-.17h-.01c-.28,0-.47-.11-.56-.34-.1-.24-.2-.54-.3-.82l-1.48-4.21c-.02-.06-.05-.14-.07-.19,0,0,0,0-.01,0h-.02s-.03,0-.05.01c-.15.1-.48.26-.72.32-.05.31-.19.71-.3,1.01l-1.29,3.69c-.12.35-.41.55-.73.55h-.01v.17c.28-.01.55-.03.83-.03.31,0,.63.02.94.03v-.17h-.05c-.26,0-.63-.03-.64-.32,0-.16.1-.37.18-.64h.03s-.03,0-.03,0l.27-.86h1.88l.32.96c.09.26.16.47.16.59-.01.25-.35.26-.53.27h-.05v.17ZM820.27,59.68l.77-2.35h.04v.04h0s0,0,0,0v-.04h.02l.76,2.35h-1.6ZM820.37,59.61h1.41l-.7-2.16-.71,2.16ZM821.05,57.37h.02s-.02,0-.02,0Z"></path><path class="st4" d="M824.56,56.86c-.6,0-.63.15-.75.73h-.24c.03-.23.07-.45.1-.68.03-.23.05-.45.05-.68h.19c.06.24.26.23.48.23h4.15c.22,0,.42,0,.43-.25l.19.03c-.03.22-.06.43-.09.65-.02.22-.02.43-.02.65l-.24.09c-.01-.3-.05-.77-.6-.77h-1.32v4.28c0,.62.28.69.67.69h.15v.24c-.31,0-.88-.03-1.31-.03-.48,0-1.05.03-1.36.03v-.24h.15c.44,0,.67-.04.67-.68v-4.3h-1.32"></path><path class="st4" d="M827.73,62.11c-.32,0-.88-.03-1.31-.03-.48,0-1.04.03-1.36.03h-.04v-.31h.19c.44-.01.62-.02.63-.64v-4.26h-1.28v-.07h1.35v4.33c0,.65-.26.71-.7.71h-.12v.17c.32,0,.86-.03,1.33-.03.42,0,.96.03,1.28.03v-.17h-.12c-.39,0-.7-.09-.7-.73v-4.32h1.35c.54,0,.61.46.63.76l.17-.06c0-.21,0-.42.02-.63.02-.21.05-.41.08-.62l-.12-.02c-.04.23-.26.25-.46.24h-4.19c-.19,0-.4,0-.47-.23h-.13c0,.22-.02.44-.05.65-.02.22-.06.43-.09.65h.17c.11-.56.18-.74.78-.73v.07c-.6.01-.58.11-.72.71v.03h-.32v-.04c.04-.23.08-.45.1-.68.03-.23.05-.45.05-.68v-.04h.26v.03c.06.2.21.2.42.21h4.19c.22,0,.39,0,.4-.22v-.04s.04,0,.04,0l.23.04v.04c-.04.22-.07.43-.09.65-.02.22-.02.43-.02.65v.02h-.02s-.28.11-.28.11v-.05c-.02-.3-.05-.74-.56-.74h-1.28v4.25c0,.61.25.65.63.66h.19v.31h-.03"></path><path class="st4" d="M829.46,61.84h.11c.29,0,.59-.04.59-.46v-4.22c0-.42-.3-.46-.59-.46h-.11v-.24c.31,0,.8.03,1.19.03s.89-.03,1.27-.03v.24h-.11c-.29,0-.6.04-.6.46v4.22c0,.42.31.46.6.46h.11v.24c-.39,0-.87-.03-1.27-.03s-.87.03-1.18.03v-.24"></path><path class="st4" d="M831.92,62.11c-.39,0-.87-.03-1.27-.03s-.87.03-1.18.03h-.03v-.31h.15c.29,0,.56-.03.56-.42v-4.22c0-.39-.27-.42-.56-.42h-.15v-.31h.03c.31,0,.8.03,1.19.03s.88-.03,1.27-.03h.03v.31h-.15c-.29,0-.56.03-.56.42v4.22c0,.39.27.42.56.42h.15v.31h-.03ZM831.88,62.04v-.17h-.08c-.29,0-.63-.05-.63-.49v-4.22c0-.45.34-.49.63-.5h.08v-.17c-.37,0-.84.03-1.23.03s-.84-.03-1.15-.03v.17h.08c.29,0,.63.05.63.5v4.22c0,.44-.34.49-.63.49h-.08v.17c.31,0,.77-.03,1.15-.03s.86.03,1.24.03Z"></path><path class="st4" d="M835.13,56.34c1.72,0,3.08,1.06,3.08,2.78,0,1.85-1.33,3.08-3.04,3.08s-3.01-1.16-3.01-2.89,1.3-2.97,2.97-2.97ZM835.25,61.85c1.56,0,1.83-1.38,1.83-2.55s-.63-2.6-1.97-2.6c-1.41,0-1.83,1.26-1.83,2.33,0,1.44.66,2.82,1.96,2.82Z"></path><path class="st4" d="M832.12,59.31c0-1.69,1.31-3,3-3v.07c-1.65,0-2.93,1.28-2.94,2.93,0,1.71,1.29,2.85,2.98,2.85,1.7,0,3.01-1.21,3.01-3.05,0-1.69-1.35-2.74-3.05-2.74v-.07c1.73,0,3.12,1.08,3.12,2.81,0,1.87-1.35,3.11-3.08,3.12-1.72,0-3.04-1.17-3.05-2.92ZM833.25,59.03c0-1.08.43-2.37,1.86-2.37,1.37,0,2,1.45,2.01,2.64,0,1.17-.28,2.58-1.87,2.58v-.07c1.53,0,1.8-1.34,1.8-2.52,0-1.17-.63-2.56-1.94-2.57-1.38,0-1.79,1.23-1.79,2.3,0,1.43.66,2.78,1.93,2.78v.07c-1.34,0-2-1.4-2-2.85Z"></path><path class="st4" d="M843.64,60.49l.02-.02v-3.02c0-.66-.46-.76-.7-.76h-.18v-.24c.38,0,.75.03,1.13.03.33,0,.66-.03.99-.03v.24h-.12c-.34,0-.72.06-.72,1.02v3.66c0,.28,0,.56.05.81h-.31l-4.15-4.62v3.32c0,.7.14.94.76.94h.14v.24c-.35,0-.69-.03-1.04-.03s-.73.03-1.1.03v-.24h.11c.56,0,.72-.38.72-1.02v-3.39c0-.45-.37-.72-.73-.72h-.1v-.24c.31,0,.62.03.93.03.24,0,.47-.03.72-.03l3.58,4.03"></path><path class="st4" d="M844.1,62.23h-.33s-4.08-4.56-4.08-4.56v3.23c0,.7.12.9.72.9h.17v.31h-.03c-.35,0-.69-.03-1.04-.03s-.73.03-1.1.03h-.03v-.31h.15c.53,0,.68-.34.69-.98v-3.39c0-.43-.35-.69-.7-.69h-.14v-.31h.03c.31,0,.62.03.93.03.24,0,.47-.03.74-.02l3.54,3.98v-2.96c0-.64-.43-.72-.67-.72h-.21v-.31h.04c.38,0,.75.03,1.12.03.33,0,.66-.03.99-.03h.03v.31h-.16c-.33,0-.67.04-.68.99v3.66c0,.28,0,.56.05.81v.04s-.03,0-.03,0ZM843.8,62.16h.26c-.03-.24-.04-.51-.04-.78v-3.66c0-.97.41-1.06.75-1.06h.09v-.17c-.32,0-.64.03-.96.03-.37,0-.73-.03-1.09-.03v.17h.14c.25,0,.73.11.73.79v3.04s-.02.02-.02.02l-.03.03-3.58-4.05c-.24,0-.47.03-.72.03-.3,0-.6-.03-.89-.03v.17h.07c.38,0,.77.29.77.76v3.39c0,.64-.18,1.06-.76,1.06h-.08s0,.17,0,.17c.35,0,.71-.03,1.06-.03s.67.03,1,.03v-.17h-.1c-.63,0-.79-.28-.79-.98v-3.41l4.18,4.67ZM843.64,60.49l.03-.02-.03.02ZM843.62,60.48h0s0,0,0,0h0Z"></path><path class="st4" d="M846.18,60.93c-.08.27-.18.48-.18.63,0,.24.34.28.6.28h.09v.24c-.32-.02-.65-.03-.97-.03-.29,0-.58.01-.87.03v-.24h.05c.32,0,.58-.19.7-.52l1.29-3.69c.1-.3.25-.7.3-1,.26-.09.58-.25.73-.35.02,0,.04-.02.06-.02.02,0,.04,0,.06.03.02.06.05.14.07.2l1.48,4.21c.1.28.19.58.3.82.1.23.27.32.53.32h.05v.24c-.36-.02-.73-.03-1.11-.03s-.8.01-1.21.03v-.24h.09c.18,0,.5-.03.5-.23,0-.1-.07-.32-.16-.58l-.31-.93h-1.83l-.26.84ZM847.36,57.36h-.02l-.75,2.28h1.51l-.74-2.28Z"></path><path class="st4" d="M850.47,62.11c-.36-.01-.72-.03-1.11-.03s-.8.02-1.21.03h-.04s0-.31,0-.31h.12c.19,0,.46-.04.46-.2,0-.09-.07-.31-.16-.57l-.31-.91h-1.78l-.25.81c-.08.28-.18.49-.18.62,0,.2.3.25.57.25h.12v.31h-.04c-.32-.02-.65-.03-.97-.03-.29,0-.58.02-.87.03h-.03s0-.31,0-.31h.08c.3,0,.55-.17.67-.5l1.29-3.69c.1-.3.25-.7.32-1.02.25-.09.58-.25.73-.35.02,0,.04-.02.08-.02.02,0,.06,0,.09.05.02.06.05.14.07.2l1.48,4.21c.1.28.19.58.3.82.09.21.24.3.5.3h.08v.31h-.04ZM848.19,62.04c.4-.01.79-.03,1.17-.03s.72.02,1.08.03v-.17h-.01c-.27,0-.46-.11-.56-.34-.11-.24-.2-.54-.3-.82l-1.48-4.21c-.02-.06-.05-.14-.07-.19,0,0,0,0-.01,0h-.02s-.03,0-.05.01c-.16.1-.48.26-.72.32-.05.3-.2.71-.3,1.01l-1.29,3.69c-.12.35-.4.55-.73.55h-.01v.17c.28-.01.55-.03.83-.03.31,0,.63.02.94.03v-.17h-.05c-.26,0-.63-.03-.64-.32,0-.16.1-.36.18-.64h.03s-.03,0-.03,0l.26-.86h1.88l.32.96c.09.26.16.47.16.59-.01.25-.35.26-.53.27h-.05v.17ZM846.55,59.68l.77-2.35h.04v.04h0s0,0,0,0v-.04h.02l.76,2.35h-1.6ZM846.64,59.61h1.41l-.7-2.16-.71,2.16ZM847.33,57.37h.02s-.02,0-.02,0Z"></path><path class="st4" d="M852.5,61.29c0,.32.22.42.48.45.33.02.69.02,1.06-.02.34-.04.63-.23.77-.44.13-.18.2-.4.25-.58h.23c-.09.46-.2.91-.3,1.37-.71,0-1.42-.03-2.12-.03s-1.42.03-2.12.03v-.24h.11c.29,0,.61-.04.61-.54v-4.14c0-.42-.32-.46-.61-.46h-.11v-.24c.43,0,.85.03,1.27.03s.81-.03,1.22-.03v.24h-.2c-.31,0-.55,0-.55.44v4.15"></path><path class="st4" d="M855.01,62.11c-.71,0-1.42-.03-2.12-.03s-1.42.03-2.13.03h-.03v-.31h.15c.29,0,.57-.03.57-.5v-4.14c0-.39-.28-.42-.57-.42h-.15v-.31h.03c.43,0,.85.03,1.27.03s.81-.03,1.22-.03h.03v.31h-.23c-.31,0-.51,0-.51.4v4.15c0,.3.2.38.45.42.14,0,.29.01.45.01.2,0,.4,0,.61-.03.33-.04.61-.23.75-.42.12-.17.19-.39.24-.57v-.03h.31v.04c-.1.46-.21.91-.31,1.37v.03h-.03ZM854.98,62.04c.09-.44.2-.86.29-1.3h-.17c-.05.18-.12.39-.25.57-.15.21-.45.41-.8.45-.21.02-.42.03-.62.03-.16,0-.31,0-.45-.02-.26-.03-.51-.14-.51-.49v-4.15c0-.45.28-.47.58-.47h.17v-.17c-.4,0-.79.03-1.19.03s-.82-.03-1.24-.03v.17h.08c.29,0,.64.05.64.49v4.14c0,.52-.35.57-.64.57h-.08v.17c.7,0,1.39-.03,2.09-.03s1.4.03,2.1.03Z"></path><path class="st3" d="M804.93,28.05c0-7.53,6.1-13.63,13.63-13.63s13.63,6.1,13.63,13.63-6.1,13.63-13.63,13.63-13.63-6.1-13.63-13.63"></path><path class="st1" d="M826.81,27.78c0-3.49-2.19-6.47-5.26-7.65v15.29c3.07-1.18,5.26-4.15,5.26-7.65ZM815.68,35.42v-15.29c-3.07,1.18-5.25,4.16-5.26,7.65,0,3.49,2.19,6.46,5.26,7.64ZM818.62,14.85c-7.14,0-12.92,5.79-12.92,12.93,0,7.14,5.78,12.92,12.92,12.92,7.14,0,12.92-5.79,12.93-12.92,0-7.14-5.79-12.92-12.93-12.93ZM818.58,41.92c-7.81.04-14.24-6.29-14.24-14,0-8.42,6.43-14.24,14.24-14.24h3.66c7.72,0,14.76,5.82,14.76,14.24,0,7.7-7.05,14-14.76,14h-3.66Z"></path><path class="st4" d="M786.14,61.84h.11c.29,0,.6-.04.6-.46v-4.22c0-.42-.31-.46-.6-.46h-.11v-.24c.31,0,.8.03,1.19.03s.88-.03,1.26-.03v.24h-.11c-.29,0-.59.04-.59.46v4.22c0,.42.31.46.59.46h.11v.24c-.39,0-.87-.03-1.27-.03s-.87.03-1.18.03v-.24"></path><path class="st4" d="M788.59,62.11c-.39,0-.87-.03-1.27-.03s-.87.03-1.18.03h-.04v-.31h.15c.29,0,.56-.03.56-.42v-4.22c0-.39-.27-.42-.56-.42h-.15v-.31h.04c.32,0,.8.03,1.19.03s.88-.03,1.26-.03h.04v.31h-.15c-.29,0-.56.03-.56.42v4.22c0,.39.27.42.56.42h.15v.31h-.04ZM788.56,62.04v-.17s-.08,0-.08,0c-.29,0-.63-.05-.63-.49v-4.22c0-.45.34-.49.63-.49h.08v-.17c-.37,0-.84.03-1.23.03s-.85-.03-1.16-.03v.17h.08c.29,0,.63.05.63.49v4.22c0,.44-.34.49-.63.49h-.08v.17c.31,0,.77-.03,1.15-.03s.86.03,1.24.03Z"></path><path class="st4" d="M855.21,56.23c.49,0,.85.37.85.85s-.36.85-.85.85-.85-.37-.85-.85.36-.85.85-.85ZM855.21,57.77c.38,0,.67-.32.67-.69s-.29-.69-.67-.69-.67.33-.67.69.29.69.67.69ZM854.78,57.53v-.04c.1-.01.12-.01.12-.08v-.63c0-.09,0-.12-.12-.11v-.04h.43c.15,0,.29.07.29.23,0,.13-.08.22-.2.26l.14.19c.06.09.14.17.19.2v.03h-.16c-.08,0-.15-.17-.3-.39h-.09v.28c0,.06.02.05.12.07v.04h-.41ZM855.07,57.08h.1c.11,0,.16-.08.16-.22s-.08-.18-.17-.18h-.09v.4Z"></path></g><path id="_x28_R_x29_" d="M732.22,30.17c0-.22-.15-.34-.41-.34h-.35v1.09h.26v-.42l.31.42h.32l-.36-.45c.15-.04.24-.15.24-.3M731.76,30.32h-.04v-.29h.05c.13,0,.2.05.2.14s-.07.15-.2.15M731.86,29.43c-.53,0-.95.42-.95.95s.43.95.95.95.94-.43.94-.95-.42-.95-.94-.95M731.85,31.16c-.42,0-.76-.35-.76-.78s.34-.78.76-.78.75.36.75.78-.34.78-.75.78"></path><path id="network" d="M665.5,47.43h1.67l3.54,5.5v-5.5h1.5v8.07h-1.55l-3.65-5.67v5.67h-1.51v-8.07ZM673.66,47.43h5.43v1.47h-3.87v1.81h3.87v1.47h-3.87v1.84h3.87v1.48h-5.43v-8.07ZM682.39,48.87h-2.24v-1.44h6v1.44h-2.22v6.64h-1.54v-6.64ZM687.27,47.43h1.6l1.48,5.62,1.68-5.62h1.5l1.67,5.63,1.51-5.63h1.57l-2.3,8.07h-1.54l-1.68-5.7-1.69,5.7h-1.57l-2.24-8.07ZM698.39,51.47c0-2.29,1.83-4.15,4.12-4.15s4.14,1.86,4.14,4.15-1.83,4.15-4.14,4.15-4.12-1.86-4.12-4.15ZM705.09,51.47c0-1.44-1.12-2.62-2.58-2.62s-2.55,1.18-2.55,2.62,1.11,2.61,2.55,2.61,2.58-1.18,2.58-2.61ZM707.86,47.43h3.27c1.86,0,2.96,1.19,2.96,2.73,0,1.02-.52,1.94-1.41,2.39l1.59,2.95h-1.75l-1.29-2.54h-1.81v2.54h-1.56v-8.07ZM709.42,48.87v2.67h1.59c1.03,0,1.5-.64,1.5-1.36,0-.8-.51-1.3-1.5-1.3h-1.59ZM718.14,51.52l-1.28,1.57v2.42h-1.57v-8.07h1.57v3.75l3.03-3.75h1.86l-2.46,3.01,2.55,5.07h-1.72l-1.97-3.99Z"></path><path id="o" class="st8" d="M701.58,35.7c0,3.62-2.93,6.56-6.56,6.56s-6.55-2.94-6.55-6.56,2.93-6.56,6.55-6.56,6.56,2.94,6.56,6.56"></path><path id="discver" d="M657.73,29.52h-3.54v12.39h3.53c1.87,0,3.23-.44,4.42-1.43,1.41-1.17,2.25-2.93,2.25-4.76,0-3.66-2.73-6.2-6.65-6.2M660.55,38.83c-.76.68-1.74.98-3.3.98h-.65v-8.19h.65c1.56,0,2.51.28,3.3,1,.84.74,1.34,1.9,1.34,3.08s-.5,2.38-1.34,3.12M665.48,29.52h2.41v12.39h-2.41v-12.39ZM673.8,34.28c2.75,1.01,3.56,1.9,3.56,3.87,0,2.4-1.76,4.07-4.27,4.07-1.84,0-3.17-.72-4.29-2.36l1.56-1.5c.56,1.08,1.48,1.65,2.64,1.65,1.08,0,1.88-.74,1.88-1.75,0-.52-.24-.97-.72-1.28-.24-.15-.72-.37-1.67-.71-2.27-.82-3.05-1.69-3.05-3.4,0-2.03,1.67-3.55,3.86-3.55,1.36,0,2.6.46,3.64,1.37l-1.26,1.66c-.63-.71-1.22-1-1.95-1-1.04,0-1.8.59-1.8,1.37,0,.67.43,1.02,1.87,1.56M678.13,35.73c0-3.6,2.93-6.48,6.59-6.48,1.04,0,1.91.22,2.97.76v2.84c-1-.98-1.88-1.39-3.03-1.39-2.26,0-4.05,1.88-4.05,4.25,0,2.51,1.73,4.27,4.16,4.27,1.09,0,1.95-.39,2.92-1.36v2.85c-1.1.52-1.99.72-3.03.72-3.68,0-6.53-2.82-6.53-6.46M710.18,29.52h2.62l-5.35,12.71h-1.3l-5.25-12.71h2.64l3.3,8.32,3.34-8.32ZM713.88,29.52h6.85v2.1h-4.44v2.75h4.27v2.1h-4.27v3.34h4.44v2.1h-6.85v-12.39ZM730.29,33.18c0-2.32-1.6-3.66-4.38-3.66h-3.58v12.39h2.41v-4.98h.32l3.34,4.98h2.97l-3.9-5.22c1.82-.37,2.82-1.61,2.82-3.51M725.45,35.23h-.71v-3.75h.74c1.5,0,2.32.63,2.32,1.84s-.82,1.92-2.36,1.92"></path></svg>